M48
;DRILL file {KiCad 4.0.5+dfsg1-4} date Tue Oct  3 20:20:26 2017
;FORMAT={-:-/ absolute / inch / decimal}
FMAT,2
INCH,TZ
T1C0.016
T2C0.031
T3C0.039
%
G90
G05
M72
T1
X3.Y-4.4
X3.05Y-3.15
X3.15Y-3.5
X3.15Y-4.4
X3.25Y-3.15
X3.3Y-3.55
X3.3Y-3.65
X3.5Y-3.35
X3.65Y-3.3
X3.7Y-3.05
X3.85Y-4.3
X3.9Y-2.75
X3.95Y-3.5
X3.95Y-3.7
X4.Y-3.25
X4.05Y-3.7
X4.3Y-3.3
X4.85Y-4.2
X4.9Y-3.5
X4.95Y-4.2
X5.Y-3.65
X5.Y-4.3
X5.05Y-4.35
X5.1Y-4.45
T2
X3.4Y-3.4
X3.4Y-4.
X3.5Y-2.85
X3.5Y-3.15
X3.5Y-3.4
X3.5Y-4.
X3.6Y-2.85
X3.6Y-3.15
X3.6Y-3.4
X3.6Y-4.
X3.7Y-2.85
X3.7Y-3.15
X3.7Y-3.4
X3.7Y-4.
X3.8Y-2.85
X3.8Y-3.15
X3.8Y-3.4
X3.8Y-4.
X3.9Y-2.85
X3.9Y-3.15
X3.9Y-3.4
X3.9Y-4.
X4.Y-2.85
X4.Y-3.15
X4.Y-3.4
X4.Y-4.
X4.1Y-2.85
X4.1Y-3.15
X4.1Y-3.4
X4.1Y-4.
X4.2Y-3.4
X4.2Y-4.
X4.3Y-3.4
X4.3Y-4.
X4.4Y-3.4
X4.4Y-4.
X4.5Y-3.4
X4.5Y-4.
X4.6Y-3.4
X4.6Y-4.
X4.7Y-3.4
X4.7Y-4.
X4.8Y-3.4
X4.8Y-4.
X4.9Y-3.4
X4.9Y-4.
T3
X3.Y-4.1
X3.Y-4.2
X3.6Y-4.1
X3.6Y-4.2
X3.8Y-4.1
X3.8Y-4.2
T0
M30
