G04 #@! TF.FileFunction,Copper,L2,Bot,Signal*
%FSLAX46Y46*%
G04 Gerber Fmt 4.6, Leading zero omitted, Abs format (unit mm)*
G04 Created by KiCad (PCBNEW 4.0.5+dfsg1-2) date Thu Jan 19 16:30:09 2017*
%MOMM*%
%LPD*%
G01*
G04 APERTURE LIST*
%ADD10C,0.100000*%
%ADD11R,2.032000X1.727200*%
%ADD12O,2.032000X1.727200*%
%ADD13R,1.270000X10.700000*%
%ADD14R,1.270000X12.700000*%
%ADD15C,0.600000*%
%ADD16C,0.500000*%
G04 APERTURE END LIST*
D10*
D11*
X80010000Y-85090000D03*
D12*
X80010000Y-82550000D03*
X80010000Y-80010000D03*
X80010000Y-77470000D03*
X80010000Y-74930000D03*
X80010000Y-72390000D03*
X80010000Y-69850000D03*
X80010000Y-67310000D03*
D11*
X97790000Y-85090000D03*
D12*
X97790000Y-82550000D03*
X97790000Y-80010000D03*
X97790000Y-77470000D03*
X97790000Y-74930000D03*
X97790000Y-72390000D03*
X97790000Y-69850000D03*
X97790000Y-67310000D03*
D11*
X115570000Y-80010000D03*
D12*
X115570000Y-77470000D03*
X115570000Y-74930000D03*
X115570000Y-72390000D03*
X115570000Y-69850000D03*
X115570000Y-67310000D03*
D11*
X124460000Y-67310000D03*
D12*
X124460000Y-69850000D03*
X124460000Y-72390000D03*
X124460000Y-74930000D03*
X124460000Y-77470000D03*
X124460000Y-80010000D03*
D11*
X106680000Y-67310000D03*
D12*
X106680000Y-69850000D03*
X106680000Y-72390000D03*
X106680000Y-74930000D03*
X106680000Y-77470000D03*
X106680000Y-80010000D03*
X106680000Y-82550000D03*
X106680000Y-85090000D03*
D11*
X88900000Y-67310000D03*
D12*
X88900000Y-69850000D03*
X88900000Y-72390000D03*
X88900000Y-74930000D03*
X88900000Y-77470000D03*
X88900000Y-80010000D03*
X88900000Y-82550000D03*
X88900000Y-85090000D03*
D13*
X76200000Y-119650000D03*
D14*
X78740000Y-120650000D03*
X81280000Y-120650000D03*
X83820000Y-120650000D03*
X86360000Y-120650000D03*
X88900000Y-120650000D03*
X91440000Y-120650000D03*
X93980000Y-120650000D03*
X96520000Y-120650000D03*
X99060000Y-120650000D03*
X101600000Y-120650000D03*
X104140000Y-120650000D03*
X106680000Y-120650000D03*
X109220000Y-120650000D03*
X111760000Y-120650000D03*
X114300000Y-120650000D03*
X116840000Y-120650000D03*
X119380000Y-120650000D03*
X121920000Y-120650000D03*
X124460000Y-120650000D03*
X127000000Y-120650000D03*
X129540000Y-120650000D03*
D15*
X82550000Y-106680000D03*
X85090000Y-106680000D03*
X85090000Y-105410000D03*
X81280000Y-105410000D03*
X102870000Y-104140000D03*
X105410000Y-104140000D03*
X101600000Y-102870000D03*
X106680000Y-102870000D03*
X118110000Y-99060000D03*
X120650000Y-99060000D03*
X116840000Y-96520000D03*
X120650000Y-96520000D03*
X93980000Y-101600000D03*
X87630000Y-101600000D03*
X92710000Y-102870000D03*
X88900000Y-102870000D03*
X90170000Y-106680000D03*
X93980000Y-110490000D03*
X110490000Y-99060000D03*
X113030000Y-101600000D03*
X109220000Y-100330000D03*
X114300000Y-105410000D03*
X107950000Y-101600000D03*
X115570000Y-109220000D03*
X125730000Y-99060000D03*
X129540000Y-102870000D03*
X95250000Y-105410000D03*
D16*
X85090000Y-106680000D02*
X82550000Y-106680000D01*
X85090000Y-105410000D02*
X81280000Y-105410000D01*
X105410000Y-104140000D02*
X102870000Y-104140000D01*
X106680000Y-102870000D02*
X101600000Y-102870000D01*
X120650000Y-99060000D02*
X118110000Y-99060000D01*
X120650000Y-96520000D02*
X116840000Y-96520000D01*
X80010000Y-106680000D02*
X80010000Y-102870000D01*
X81280000Y-107950000D02*
X80010000Y-106680000D01*
X81280000Y-120650000D02*
X81280000Y-107950000D01*
X85090000Y-76200000D02*
X88900000Y-72390000D01*
X85090000Y-97790000D02*
X85090000Y-76200000D01*
X80010000Y-102870000D02*
X85090000Y-97790000D01*
X78740000Y-120650000D02*
X78740000Y-101600000D01*
X83820000Y-74930000D02*
X88900000Y-69850000D01*
X83820000Y-96520000D02*
X83820000Y-74930000D01*
X78740000Y-101600000D02*
X83820000Y-96520000D01*
X76200000Y-120650000D02*
X76200000Y-101600000D01*
X82550000Y-73660000D02*
X88900000Y-67310000D01*
X82550000Y-95250000D02*
X82550000Y-73660000D01*
X76200000Y-101600000D02*
X82550000Y-95250000D01*
X83820000Y-120650000D02*
X83820000Y-113030000D01*
X86360000Y-77470000D02*
X88900000Y-74930000D01*
X86360000Y-110490000D02*
X86360000Y-77470000D01*
X83820000Y-113030000D02*
X86360000Y-110490000D01*
X93980000Y-82550000D02*
X88900000Y-77470000D01*
X93980000Y-101600000D02*
X93980000Y-82550000D01*
X86360000Y-120650000D02*
X86360000Y-113030000D01*
X87630000Y-111760000D02*
X87630000Y-101600000D01*
X86360000Y-113030000D02*
X87630000Y-111760000D01*
X88900000Y-120650000D02*
X88900000Y-102870000D01*
X92710000Y-83820000D02*
X88900000Y-80010000D01*
X92710000Y-102870000D02*
X92710000Y-83820000D01*
X88900000Y-82550000D02*
X91440000Y-85090000D01*
X91440000Y-85090000D02*
X91440000Y-120650000D01*
X90170000Y-86360000D02*
X88900000Y-85090000D01*
X90170000Y-106680000D02*
X90170000Y-86360000D01*
X93980000Y-120650000D02*
X93980000Y-110490000D01*
X96520000Y-120650000D02*
X96520000Y-97790000D01*
X100330000Y-73660000D02*
X106680000Y-67310000D01*
X100330000Y-93980000D02*
X100330000Y-73660000D01*
X96520000Y-97790000D02*
X100330000Y-93980000D01*
X97790000Y-99060000D02*
X101600000Y-95250000D01*
X97790000Y-111760000D02*
X97790000Y-99060000D01*
X99060000Y-120650000D02*
X99060000Y-113030000D01*
X101600000Y-74930000D02*
X106680000Y-69850000D01*
X101600000Y-95250000D02*
X101600000Y-74930000D01*
X99060000Y-113030000D02*
X97790000Y-111760000D01*
X101600000Y-120650000D02*
X101600000Y-113030000D01*
X102870000Y-76200000D02*
X106680000Y-72390000D01*
X102870000Y-96520000D02*
X102870000Y-76200000D01*
X99060000Y-100330000D02*
X102870000Y-96520000D01*
X99060000Y-110490000D02*
X99060000Y-100330000D01*
X101600000Y-113030000D02*
X99060000Y-110490000D01*
X104140000Y-120650000D02*
X104140000Y-113030000D01*
X104140000Y-77470000D02*
X106680000Y-74930000D01*
X104140000Y-97790000D02*
X104140000Y-77470000D01*
X100330000Y-101600000D02*
X104140000Y-97790000D01*
X100330000Y-109220000D02*
X100330000Y-101600000D01*
X104140000Y-113030000D02*
X100330000Y-109220000D01*
X106680000Y-120650000D02*
X106680000Y-113030000D01*
X111760000Y-82550000D02*
X106680000Y-77470000D01*
X111760000Y-107950000D02*
X111760000Y-82550000D01*
X106680000Y-113030000D02*
X111760000Y-107950000D01*
X109220000Y-120650000D02*
X109220000Y-113030000D01*
X110490000Y-83820000D02*
X106680000Y-80010000D01*
X110490000Y-99060000D02*
X110490000Y-83820000D01*
X113030000Y-109220000D02*
X113030000Y-101600000D01*
X109220000Y-113030000D02*
X113030000Y-109220000D01*
X111760000Y-120650000D02*
X111760000Y-113030000D01*
X109220000Y-85090000D02*
X106680000Y-82550000D01*
X109220000Y-100330000D02*
X109220000Y-85090000D01*
X109220000Y-100330000D02*
X109220000Y-100330000D01*
X114300000Y-110490000D02*
X114300000Y-105410000D01*
X111760000Y-113030000D02*
X114300000Y-110490000D01*
X115570000Y-109220000D02*
X115570000Y-111760000D01*
X115570000Y-111760000D02*
X114300000Y-113030000D01*
X114300000Y-113030000D02*
X114300000Y-120650000D01*
X114300000Y-120650000D02*
X114300000Y-113030000D01*
X107950000Y-86360000D02*
X106680000Y-85090000D01*
X107950000Y-101600000D02*
X107950000Y-86360000D01*
X107950000Y-101600000D02*
X107950000Y-101600000D01*
X115570000Y-109220000D02*
X115570000Y-109220000D01*
X116840000Y-120650000D02*
X116840000Y-99060000D01*
X118110000Y-73660000D02*
X124460000Y-67310000D01*
X118110000Y-92710000D02*
X118110000Y-73660000D01*
X115570000Y-95250000D02*
X118110000Y-92710000D01*
X115570000Y-97790000D02*
X115570000Y-95250000D01*
X116840000Y-99060000D02*
X115570000Y-97790000D01*
X121920000Y-100330000D02*
X119380000Y-102870000D01*
X119380000Y-92710000D02*
X119380000Y-74930000D01*
X124460000Y-69850000D02*
X119380000Y-74930000D01*
X119380000Y-102870000D02*
X119380000Y-120650000D01*
X121920000Y-100330000D02*
X121920000Y-95250000D01*
X121920000Y-95250000D02*
X119380000Y-92710000D01*
X121920000Y-120650000D02*
X121920000Y-104140000D01*
X120650000Y-76200000D02*
X124460000Y-72390000D01*
X120650000Y-91440000D02*
X120650000Y-76200000D01*
X123190000Y-93980000D02*
X120650000Y-91440000D01*
X123190000Y-102870000D02*
X123190000Y-93980000D01*
X121920000Y-104140000D02*
X123190000Y-102870000D01*
X124460000Y-120650000D02*
X124460000Y-92710000D01*
X121920000Y-77470000D02*
X124460000Y-74930000D01*
X121920000Y-90170000D02*
X121920000Y-77470000D01*
X124460000Y-92710000D02*
X121920000Y-90170000D01*
X127000000Y-120650000D02*
X127000000Y-80010000D01*
X127000000Y-80010000D02*
X124460000Y-77470000D01*
X129540000Y-120650000D02*
X129540000Y-102870000D01*
X125730000Y-81280000D02*
X124460000Y-80010000D01*
X125730000Y-99060000D02*
X125730000Y-81280000D01*
X95250000Y-105410000D02*
X95250000Y-72390000D01*
X95250000Y-72390000D02*
X97790000Y-69850000D01*
M02*
