M48
;DRILL file {KiCad 4.0.5+dfsg1-2} date Thu Jan 19 16:30:15 2017
;FORMAT={-:-/ absolute / inch / decimal}
FMAT,2
INCH,TZ
T1C0.016
T2C0.040
%
G90
G05
M72
T1
X3.2Y-4.15
X3.25Y-4.2
X3.35Y-4.15
X3.35Y-4.2
X3.45Y-4.
X3.5Y-4.05
X3.55Y-4.2
X3.65Y-4.05
X3.7Y-4.
X3.7Y-4.35
X3.75Y-4.15
X4.Y-4.05
X4.05Y-4.1
X4.15Y-4.1
X4.2Y-4.05
X4.25Y-4.
X4.3Y-3.95
X4.35Y-3.9
X4.45Y-4.
X4.5Y-4.15
X4.55Y-4.3
X4.6Y-3.8
X4.65Y-3.9
X4.75Y-3.8
X4.75Y-3.9
X4.95Y-3.9
X5.1Y-4.05
T2
X3.15Y-2.65
X3.15Y-2.75
X3.15Y-2.85
X3.15Y-2.95
X3.15Y-3.05
X3.15Y-3.15
X3.15Y-3.25
X3.15Y-3.35
X3.5Y-2.65
X3.5Y-2.75
X3.5Y-2.85
X3.5Y-2.95
X3.5Y-3.05
X3.5Y-3.15
X3.5Y-3.25
X3.5Y-3.35
X3.85Y-2.65
X3.85Y-2.75
X3.85Y-2.85
X3.85Y-2.95
X3.85Y-3.05
X3.85Y-3.15
X3.85Y-3.25
X3.85Y-3.35
X4.2Y-2.65
X4.2Y-2.75
X4.2Y-2.85
X4.2Y-2.95
X4.2Y-3.05
X4.2Y-3.15
X4.2Y-3.25
X4.2Y-3.35
X4.55Y-2.65
X4.55Y-2.75
X4.55Y-2.85
X4.55Y-2.95
X4.55Y-3.05
X4.55Y-3.15
X4.9Y-2.65
X4.9Y-2.75
X4.9Y-2.85
X4.9Y-2.95
X4.9Y-3.05
X4.9Y-3.15
T0
M30
