  0
SECTION
  2
HEADER
  9
$ACADVER
  1
AC1014
  9
$HANDSEED
  5
FFFF
  9
$MEASUREMENT
 70
     1
  0
ENDSEC
  0
SECTION
  2
TABLES
  0
TABLE
  2
VPORT
  5
8
330
0
100
AcDbSymbolTable
 70
     4
  0
VPORT
  5
2E
330
8
100
AcDbSymbolTableRecord
100
AcDbViewportTableRecord
  2
*ACTIVE
 70
     0
 10
0.0
 20
0.0
 11
1.0
 21
1.0
 12
210.0
 22
148.5
 13
0.0
 23
0.0
 14
10.0
 24
10.0
 15
10.0
 25
10.0
 16
0.0
 26
0.0
 36
1.0
 17
0.0
 27
0.0
 37
0.0
 40
341.0
 41
1.24
 42
50.0
 43
0.0
 44
0.0
 50
0.0
 51
0.0
 71
     0
 72
   100
 73
     1
 74
     3
 75
     0
 76
     0
 77
     0
 78
     0
  0
ENDTAB
  0
TABLE
  2
LTYPE
  5
5
330
0
100
AcDbSymbolTable
 70
     1
  0
LTYPE
  5
14
330
5
100
AcDbSymbolTableRecord
100
AcDbLinetypeTableRecord
  2
BYBLOCK
 70
     0
  3

 72
    65
 73
     0
 40
0.0
  0
LTYPE
  5
15
330
5
100
AcDbSymbolTableRecord
100
AcDbLinetypeTableRecord
  2
BYLAYER
 70
     0
  3

 72
    65
 73
     0
 40
0.0
  0
LTYPE
  5
16
330
5
100
AcDbSymbolTableRecord
100
AcDbLinetypeTableRecord
  2
CONTINUOUS
 70
     0
  3
Solid line
 72
    65
 73
     0
 40
0.0
  0
ENDTAB
  0
TABLE
  2
LAYER
  5
2
100
AcDbSymbolTable
 70
2
  0
LAYER
  5
50
100
AcDbSymbolTableRecord
100
AcDbLayerTableRecord
  2
0
 70
0
  6
CONTINUOUS
  0
LAYER
  5
51
100
AcDbSymbolTableRecord
100
AcDbLayerTableRecord
  2
Layer_1
 70
0
  6
CONTINUOUS
  0
ENDTAB
  0
TABLE
  2
STYLE
  5
3
330
0
100
AcDbSymbolTable
 70
     1
  0
STYLE
  5
11
330
3
100
AcDbSymbolTableRecord
100
AcDbTextStyleTableRecord
  2
STANDARD
 70
     0
 40
0.0
 41
1.0
 50
0.0
 71
     0
 42
2.5
  3
txt
  4

  0
ENDTAB
  0
TABLE
  2
VIEW
  5
6
330
0
100
AcDbSymbolTable
 70
     0
  0
ENDTAB
  0
TABLE
  2
UCS
  5
7
330
0
100
AcDbSymbolTable
 70
     0
  0
ENDTAB
  0
TABLE
  2
APPID
  5
9
330
0
100
AcDbSymbolTable
 70
     2
  0
APPID
  5
12
330
9
100
AcDbSymbolTableRecord
100
AcDbRegAppTableRecord
  2
ACAD
 70
     0
  0
ENDTAB
  0
TABLE
  2
DIMSTYLE
  5
A
330
0
100
AcDbSymbolTable
 70
     1
  0
DIMSTYLE
105
27
330
A
100
AcDbSymbolTableRecord
100
AcDbDimStyleTableRecord
  2
ISO-25
 70
     0
  3

  4

  5

  6

  7

 40
1.0
 41
2.5
 42
0.625
 43
3.75
 44
1.25
 45
0.0
 46
0.0
 47
0.0
 48
0.0
140
2.5
141
2.5
142
0.0
143
0.03937007874016
144
1.0
145
0.0
146
1.0
147
0.625
 71
     0
 72
     0
 73
     0
 74
     0
 75
     0
 76
     0
 77
     1
 78
     8
170
     0
171
     3
172
     1
173
     0
174
     0
175
     0
176
     0
177
     0
178
     0
270
     2
271
     2
272
     2
273
     2
274
     3
340
11
275
     0
280
     0
281
     0
282
     0
283
     0
284
     8
285
     0
286
     0
287
     3
288
     0
  0
ENDTAB
  0
TABLE
  2
BLOCK_RECORD
  5
1
330
0
100
AcDbSymbolTable
 70
     1
  0
BLOCK_RECORD
  5
1F
330
1
100
AcDbSymbolTableRecord
100
AcDbBlockTableRecord
  2
*MODEL_SPACE
  0
BLOCK_RECORD
  5
1B
330
1
100
AcDbSymbolTableRecord
100
AcDbBlockTableRecord
  2
*PAPER_SPACE
  0
ENDTAB
  0
ENDSEC
  0
SECTION
  2
BLOCKS
  0
BLOCK
  5
20
330
1F
100
AcDbEntity
  8
0
100
AcDbBlockBegin
  2
*MODEL_SPACE
 70
     0
 10
0.0
 20
0.0
 30
0.0
  3
*MODEL_SPACE
  1

  0
ENDBLK
  5
21
330
1F
100
AcDbEntity
  8
0
100
AcDbBlockEnd
  0
BLOCK
  5
1C
330
1B
100
AcDbEntity
 67
     1
  8
0
100
AcDbBlockBegin
  2
*PAPER_SPACE
  1

  0
ENDBLK
  5
1D
330
1B
100
AcDbEntity
 67
     1
  8
0
100
AcDbBlockEnd
  0
ENDSEC
  0
SECTION
  2
ENTITIES
  0
LWPOLYLINE
  5
100
100
AcDbEntity
  8
Layer_1
 62
7
100
AcDbPolyline
 90
25
 70
0
 10
84.851875
 20
62.503403
 30
0.0
 10
84.851875
 20
11.853347
 30
0.0
 10
71.772639
 20
11.853347
 30
0.0
 10
71.551238
 20
11.830770
 30
0.0
 10
71.345487
 20
11.766395
 30
0.0
 10
71.159661
 20
11.664569
 30
0.0
 10
70.998035
 20
11.529808
 30
0.0
 10
70.864882
 20
11.366571
 30
0.0
 10
70.764479
 20
11.179316
 30
0.0
 10
70.701103
 20
10.972560
 30
0.0
 10
70.679033
 20
10.750790
 30
0.0
 10
70.679033
 20
-0.000099
 30
0.0
 10
14.172853
 20
-0.000099
 30
0.0
 10
14.172853
 20
10.750790
 30
0.0
 10
14.150777
 20
10.972560
 30
0.0
 10
14.087401
 20
11.179316
 30
0.0
 10
13.986999
 20
11.366571
 30
0.0
 10
13.853846
 20
11.529808
 30
0.0
 10
13.692219
 20
11.664569
 30
0.0
 10
13.506392
 20
11.766395
 30
0.0
 10
13.300642
 20
11.830770
 30
0.0
 10
13.079242
 20
11.853347
 30
0.0
 10
0.000006
 20
11.853347
 30
0.0
 10
0.000006
 20
62.503403
 30
0.0
 10
84.851875
 20
62.503403
 30
0.0
  0
LWPOLYLINE
  5
101
100
AcDbEntity
  8
Layer_1
 62
7
100
AcDbPolyline
 90
33
 70
0
 10
79.877708
 20
58.225972
 30
0.0
 10
79.555035
 20
58.193624
 30
0.0
 10
79.254119
 20
58.100809
 30
0.0
 10
78.981512
 20
57.953879
 30
0.0
 10
78.743773
 20
57.759179
 30
0.0
 10
78.547454
 20
57.523058
 30
0.0
 10
78.399109
 20
57.251865
 30
0.0
 10
78.305296
 20
56.951948
 30
0.0
 10
78.272569
 20
56.629653
 30
0.0
 10
78.305296
 20
56.306980
 30
0.0
 10
78.399109
 20
56.006063
 30
0.0
 10
78.547454
 20
55.733456
 30
0.0
 10
78.743773
 20
55.495718
 30
0.0
 10
78.981512
 20
55.299398
 30
0.0
 10
79.254119
 20
55.151054
 30
0.0
 10
79.555035
 20
55.057240
 30
0.0
 10
79.877708
 20
55.024514
 30
0.0
 10
80.200003
 20
55.057240
 30
0.0
 10
80.499921
 20
55.151054
 30
0.0
 10
80.771114
 20
55.299398
 30
0.0
 10
81.007235
 20
55.495718
 30
0.0
 10
81.201935
 20
55.733456
 30
0.0
 10
81.348865
 20
56.006063
 30
0.0
 10
81.441679
 20
56.306980
 30
0.0
 10
81.474028
 20
56.629653
 30
0.0
 10
81.441679
 20
56.951948
 30
0.0
 10
81.348865
 20
57.251865
 30
0.0
 10
81.201935
 20
57.523058
 30
0.0
 10
81.007235
 20
57.759179
 30
0.0
 10
80.771114
 20
57.953879
 30
0.0
 10
80.499921
 20
58.100809
 30
0.0
 10
80.200003
 20
58.193624
 30
0.0
 10
79.877708
 20
58.225972
 30
0.0
  0
LWPOLYLINE
  5
102
100
AcDbEntity
  8
Layer_1
 62
7
100
AcDbPolyline
 90
33
 70
0
 10
4.974167
 20
58.225972
 30
0.0
 10
4.651873
 20
58.193624
 30
0.0
 10
4.351955
 20
58.100809
 30
0.0
 10
4.080761
 20
57.953879
 30
0.0
 10
3.844641
 20
57.759179
 30
0.0
 10
3.649941
 20
57.523058
 30
0.0
 10
3.503010
 20
57.251865
 30
0.0
 10
3.410196
 20
56.951948
 30
0.0
 10
3.377847
 20
56.629653
 30
0.0
 10
3.410196
 20
56.306980
 30
0.0
 10
3.503010
 20
56.006063
 30
0.0
 10
3.649941
 20
55.733456
 30
0.0
 10
3.844641
 20
55.495718
 30
0.0
 10
4.080761
 20
55.299398
 30
0.0
 10
4.351955
 20
55.151054
 30
0.0
 10
4.651873
 20
55.057240
 30
0.0
 10
4.974167
 20
55.024514
 30
0.0
 10
5.296840
 20
55.057240
 30
0.0
 10
5.597757
 20
55.151054
 30
0.0
 10
5.870362
 20
55.299398
 30
0.0
 10
6.108102
 20
55.495718
 30
0.0
 10
6.304421
 20
55.733456
 30
0.0
 10
6.452765
 20
56.006063
 30
0.0
 10
6.546578
 20
56.306980
 30
0.0
 10
6.579306
 20
56.629653
 30
0.0
 10
6.546578
 20
56.951948
 30
0.0
 10
6.452765
 20
57.251865
 30
0.0
 10
6.304421
 20
57.523058
 30
0.0
 10
6.108102
 20
57.759179
 30
0.0
 10
5.870362
 20
57.953879
 30
0.0
 10
5.597757
 20
58.100809
 30
0.0
 10
5.296840
 20
58.193624
 30
0.0
 10
4.974167
 20
58.225972
 30
0.0
  0
LWPOLYLINE
  5
103
100
AcDbEntity
  8
Layer_1
 62
7
100
AcDbPolyline
 90
49
 70
0
 10
70.026389
 20
40.128472
 30
0.0
 10
69.804590
 20
40.106007
 30
0.0
 10
69.597832
 20
40.041638
 30
0.0
 10
69.410591
 20
39.939832
 30
0.0
 10
69.247348
 20
39.805068
 30
0.0
 10
69.112584
 20
39.641825
 30
0.0
 10
69.010778
 20
39.454585
 30
0.0
 10
68.946409
 20
39.247826
 30
0.0
 10
68.923944
 20
39.026028
 30
0.0
 10
68.923944
 20
37.513494
 30
0.0
 10
68.923944
 20
36.000958
 30
0.0
 10
68.923944
 20
34.488425
 30
0.0
 10
68.923944
 20
32.975889
 30
0.0
 10
68.923944
 20
31.463355
 30
0.0
 10
68.923944
 20
29.950819
 30
0.0
 10
68.923944
 20
28.438286
 30
0.0
 10
68.923944
 20
26.925750
 30
0.0
 10
68.946409
 20
26.704330
 30
0.0
 10
69.010778
 20
26.498570
 30
0.0
 10
69.112584
 20
26.312743
 30
0.0
 10
69.247348
 20
26.151120
 30
0.0
 10
69.410591
 20
26.017976
 30
0.0
 10
69.597832
 20
25.917581
 30
0.0
 10
69.804590
 20
25.854211
 30
0.0
 10
70.026389
 20
25.832141
 30
0.0
 10
70.248187
 20
25.854211
 30
0.0
 10
70.454946
 20
25.917581
 30
0.0
 10
70.642186
 20
26.017976
 30
0.0
 10
70.805429
 20
26.151120
 30
0.0
 10
70.940193
 20
26.312743
 30
0.0
 10
71.041999
 20
26.498570
 30
0.0
 10
71.106369
 20
26.704330
 30
0.0
 10
71.128834
 20
26.925750
 30
0.0
 10
71.128834
 20
28.438286
 30
0.0
 10
71.128834
 20
29.950819
 30
0.0
 10
71.128834
 20
31.463355
 30
0.0
 10
71.128834
 20
32.975889
 30
0.0
 10
71.128834
 20
34.488425
 30
0.0
 10
71.128834
 20
36.000958
 30
0.0
 10
71.128834
 20
37.513494
 30
0.0
 10
71.128834
 20
39.026028
 30
0.0
 10
71.106369
 20
39.247826
 30
0.0
 10
71.041999
 20
39.454585
 30
0.0
 10
70.940193
 20
39.641825
 30
0.0
 10
70.805429
 20
39.805068
 30
0.0
 10
70.642186
 20
39.939832
 30
0.0
 10
70.454946
 20
40.041638
 30
0.0
 10
70.248187
 20
40.106007
 30
0.0
 10
70.026389
 20
40.128472
 30
0.0
  0
LWPOLYLINE
  5
104
100
AcDbEntity
  8
Layer_1
 62
7
100
AcDbPolyline
 90
49
 70
0
 10
14.825486
 20
40.128472
 30
0.0
 10
14.603687
 20
40.106007
 30
0.0
 10
14.396928
 20
40.041638
 30
0.0
 10
14.209687
 20
39.939832
 30
0.0
 10
14.046446
 20
39.805068
 30
0.0
 10
13.911682
 20
39.641825
 30
0.0
 10
13.809876
 20
39.454585
 30
0.0
 10
13.745507
 20
39.247826
 30
0.0
 10
13.723056
 20
39.026028
 30
0.0
 10
13.723056
 20
37.826583
 30
0.0
 10
13.723056
 20
36.627139
 30
0.0
 10
13.723056
 20
35.427694
 30
0.0
 10
13.723056
 20
34.228250
 30
0.0
 10
13.723056
 20
33.028805
 30
0.0
 10
13.723056
 20
31.829361
 30
0.0
 10
13.723056
 20
30.629916
 30
0.0
 10
13.723056
 20
29.430472
 30
0.0
 10
13.745507
 20
29.208674
 30
0.0
 10
13.809876
 20
29.001915
 30
0.0
 10
13.911682
 20
28.814674
 30
0.0
 10
14.046446
 20
28.651431
 30
0.0
 10
14.209687
 20
28.516667
 30
0.0
 10
14.396928
 20
28.414861
 30
0.0
 10
14.603687
 20
28.350492
 30
0.0
 10
14.825486
 20
28.328056
 30
0.0
 10
15.047284
 20
28.350492
 30
0.0
 10
15.254043
 20
28.414861
 30
0.0
 10
15.441283
 20
28.516667
 30
0.0
 10
15.604526
 20
28.651431
 30
0.0
 10
15.739290
 20
28.814674
 30
0.0
 10
15.841096
 20
29.001915
 30
0.0
 10
15.905465
 20
29.208674
 30
0.0
 10
15.927916
 20
29.430472
 30
0.0
 10
15.927916
 20
30.629916
 30
0.0
 10
15.927916
 20
31.829361
 30
0.0
 10
15.927916
 20
33.028805
 30
0.0
 10
15.927916
 20
34.228250
 30
0.0
 10
15.927916
 20
35.427694
 30
0.0
 10
15.927916
 20
36.627139
 30
0.0
 10
15.927916
 20
37.826583
 30
0.0
 10
15.927916
 20
39.026028
 30
0.0
 10
15.905465
 20
39.247826
 30
0.0
 10
15.841096
 20
39.454585
 30
0.0
 10
15.739290
 20
39.641825
 30
0.0
 10
15.604526
 20
39.805068
 30
0.0
 10
15.441283
 20
39.939832
 30
0.0
 10
15.254043
 20
40.041638
 30
0.0
 10
15.047284
 20
40.106007
 30
0.0
 10
14.825486
 20
40.128472
 30
0.0
  0
LWPOLYLINE
  5
105
100
AcDbEntity
  8
Layer_1
 62
7
100
AcDbPolyline
 90
33
 70
0
 10
79.877708
 20
29.377569
 30
0.0
 10
79.122027
 20
29.301457
 30
0.0
 10
78.418312
 20
29.083147
 30
0.0
 10
77.781599
 20
28.737676
 30
0.0
 10
77.226928
 20
28.280086
 30
0.0
 10
76.769338
 20
27.725415
 30
0.0
 10
76.423867
 20
27.088702
 30
0.0
 10
76.205557
 20
26.384987
 30
0.0
 10
76.129444
 20
25.629306
 30
0.0
 10
76.205557
 20
24.873627
 30
0.0
 10
76.423867
 20
24.169912
 30
0.0
 10
76.769338
 20
23.533199
 30
0.0
 10
77.226928
 20
22.978528
 30
0.0
 10
77.781599
 20
22.520935
 30
0.0
 10
78.418312
 20
22.175464
 30
0.0
 10
79.122027
 20
21.957154
 30
0.0
 10
79.877708
 20
21.881042
 30
0.0
 10
80.633387
 20
21.957154
 30
0.0
 10
81.337102
 20
22.175464
 30
0.0
 10
81.973815
 20
22.520935
 30
0.0
 10
82.528486
 20
22.978528
 30
0.0
 10
82.986078
 20
23.533199
 30
0.0
 10
83.331550
 20
24.169912
 30
0.0
 10
83.549860
 20
24.873627
 30
0.0
 10
83.625972
 20
25.629306
 30
0.0
 10
83.549860
 20
26.384987
 30
0.0
 10
83.331550
 20
27.088702
 30
0.0
 10
82.986078
 20
27.725415
 30
0.0
 10
82.528486
 20
28.280086
 30
0.0
 10
81.973815
 20
28.737676
 30
0.0
 10
81.337102
 20
29.083147
 30
0.0
 10
80.633387
 20
29.301457
 30
0.0
 10
79.877708
 20
29.377569
 30
0.0
  0
LWPOLYLINE
  5
106
100
AcDbEntity
  8
Layer_1
 62
7
100
AcDbPolyline
 90
33
 70
0
 10
4.974167
 20
29.377569
 30
0.0
 10
4.218487
 20
29.301457
 30
0.0
 10
3.514771
 20
29.083147
 30
0.0
 10
2.878058
 20
28.737676
 30
0.0
 10
2.323386
 20
28.280086
 30
0.0
 10
1.865796
 20
27.725415
 30
0.0
 10
1.520326
 20
27.088702
 30
0.0
 10
1.302015
 20
26.384987
 30
0.0
 10
1.225903
 20
25.629306
 30
0.0
 10
1.302015
 20
24.873625
 30
0.0
 10
1.520326
 20
24.169909
 30
0.0
 10
1.865796
 20
23.533196
 30
0.0
 10
2.323386
 20
22.978525
 30
0.0
 10
2.878058
 20
22.520935
 30
0.0
 10
3.514771
 20
22.175464
 30
0.0
 10
4.218487
 20
21.957154
 30
0.0
 10
4.974167
 20
21.881042
 30
0.0
 10
5.730225
 20
21.957154
 30
0.0
 10
6.434940
 20
22.175464
 30
0.0
 10
7.073066
 20
22.520935
 30
0.0
 10
7.629357
 20
22.978525
 30
0.0
 10
8.088566
 20
23.533196
 30
0.0
 10
8.435449
 20
24.169909
 30
0.0
 10
8.654759
 20
24.873625
 30
0.0
 10
8.731250
 20
25.629306
 30
0.0
 10
8.654759
 20
26.384987
 30
0.0
 10
8.435449
 20
27.088702
 30
0.0
 10
8.088566
 20
27.725415
 30
0.0
 10
7.629357
 20
28.280086
 30
0.0
 10
7.073066
 20
28.737676
 30
0.0
 10
6.434940
 20
29.083147
 30
0.0
 10
5.730225
 20
29.301457
 30
0.0
 10
4.974167
 20
29.377569
 30
0.0
  0
LWPOLYLINE
  5
107
100
AcDbEntity
  8
Layer_1
 62
7
100
AcDbPolyline
 90
33
 70
0
 10
79.877708
 20
18.229792
 30
0.0
 10
79.555035
 20
18.197065
 30
0.0
 10
79.254119
 20
18.103252
 30
0.0
 10
78.981512
 20
17.954907
 30
0.0
 10
78.743773
 20
17.758588
 30
0.0
 10
78.547454
 20
17.520849
 30
0.0
 10
78.399109
 20
17.248243
 30
0.0
 10
78.305296
 20
16.947326
 30
0.0
 10
78.272569
 20
16.624653
 30
0.0
 10
78.305296
 20
16.302358
 30
0.0
 10
78.399109
 20
16.002440
 30
0.0
 10
78.547454
 20
15.731247
 30
0.0
 10
78.743773
 20
15.495126
 30
0.0
 10
78.981512
 20
15.300427
 30
0.0
 10
79.254119
 20
15.153496
 30
0.0
 10
79.555035
 20
15.060682
 30
0.0
 10
79.877708
 20
15.028333
 30
0.0
 10
80.200003
 20
15.060682
 30
0.0
 10
80.499921
 20
15.153496
 30
0.0
 10
80.771114
 20
15.300427
 30
0.0
 10
81.007235
 20
15.495126
 30
0.0
 10
81.201935
 20
15.731247
 30
0.0
 10
81.348865
 20
16.002440
 30
0.0
 10
81.441679
 20
16.302358
 30
0.0
 10
81.474028
 20
16.624653
 30
0.0
 10
81.441679
 20
16.947326
 30
0.0
 10
81.348865
 20
17.248243
 30
0.0
 10
81.201935
 20
17.520849
 30
0.0
 10
81.007235
 20
17.758588
 30
0.0
 10
80.771114
 20
17.954907
 30
0.0
 10
80.499921
 20
18.103252
 30
0.0
 10
80.200003
 20
18.197065
 30
0.0
 10
79.877708
 20
18.229792
 30
0.0
  0
LWPOLYLINE
  5
108
100
AcDbEntity
  8
Layer_1
 62
7
100
AcDbPolyline
 90
33
 70
0
 10
4.974167
 20
18.229792
 30
0.0
 10
4.651873
 20
18.197065
 30
0.0
 10
4.351955
 20
18.103252
 30
0.0
 10
4.080761
 20
17.954907
 30
0.0
 10
3.844641
 20
17.758588
 30
0.0
 10
3.649941
 20
17.520849
 30
0.0
 10
3.503010
 20
17.248243
 30
0.0
 10
3.410196
 20
16.947326
 30
0.0
 10
3.377847
 20
16.624653
 30
0.0
 10
3.410196
 20
16.302358
 30
0.0
 10
3.503010
 20
16.002440
 30
0.0
 10
3.649941
 20
15.731247
 30
0.0
 10
3.844641
 20
15.495126
 30
0.0
 10
4.080761
 20
15.300427
 30
0.0
 10
4.351955
 20
15.153496
 30
0.0
 10
4.651873
 20
15.060682
 30
0.0
 10
4.974167
 20
15.028333
 30
0.0
 10
5.296840
 20
15.060682
 30
0.0
 10
5.597757
 20
15.153496
 30
0.0
 10
5.870362
 20
15.300427
 30
0.0
 10
6.108102
 20
15.495126
 30
0.0
 10
6.304421
 20
15.731247
 30
0.0
 10
6.452765
 20
16.002440
 30
0.0
 10
6.546578
 20
16.302358
 30
0.0
 10
6.579306
 20
16.624653
 30
0.0
 10
6.546578
 20
16.947326
 30
0.0
 10
6.452765
 20
17.248243
 30
0.0
 10
6.304421
 20
17.520849
 30
0.0
 10
6.108102
 20
17.758588
 30
0.0
 10
5.870362
 20
17.954907
 30
0.0
 10
5.597757
 20
18.103252
 30
0.0
 10
5.296840
 20
18.197065
 30
0.0
 10
4.974167
 20
18.229792
 30
0.0
  0
ENDSEC
  0
SECTION
  2
OBJECTS
  0
DICTIONARY
  5
C
330
0
100
AcDbDictionary
  3
ACAD_GROUP
350
D
  3
ACAD_MLINESTYLE
350
17
  0
DICTIONARY
  5
D
330
C
100
AcDbDictionary
  0
DICTIONARY
  5
1A
330
C
100
AcDbDictionary
  0
DICTIONARY
  5
17
330
C
100
AcDbDictionary
  3
STANDARD
350
18
  0
DICTIONARY
  5
19
330
C
100
AcDbDictionary
  0
ENDSEC
  0
EOF
